<?xml version="1.0"?>
<svg xmlns="http://www.w3.org/2000/svg" viewBox="0 0 50 50"  fill="currentColor">
    <path d="M 10 9 C 6.134 9 3 12.134 3 16 L 3 34 C 3 37.866 6.134 41 10 41 L 40 41 C 43.866 41 47 37.866 47 34 L 47 16 C 47 12.134 43.866 9 40 9 L 10 9 z M 14.59375 16.75 L 22.875 16.75 L 22.875 18.96875 L 16.5 18.96875 L 15.75 22.84375 C 16.393 22.34275 17.28225 22.09375 18.40625 22.09375 C 22.67825 22.09375 23.84375 25.644 23.84375 27.75 C 23.84375 32.088 20.2005 33.25 18.0625 33.25 C 13.8505 33.25 12.75 30.1015 12.75 28.4375 L 12.75 28.1875 L 15.0625 28.1875 L 15.0625 28.4375 C 15.0625 30.2235 16.86725 31.03125 18.15625 31.03125 C 21.03825 31.03125 21.28125 28.329 21.28125 27.5 C 21.28125 24.232 18.25025 24.125 17.90625 24.125 C 16.55425 24.125 15.6865 24.876 15.1875 25.5 L 15.09375 25.59375 L 13.0625 25.5 L 14.59375 16.75 z M 31.40625 16.75 C 33.80825 16.75 35.492 17.8715 36.375 20.0625 C 37.066 21.7785 37.0635 23.66175 37.0625 24.46875 L 37.0625 24.53125 C 37.0625 30.31825 35.1115 33.25 31.3125 33.25 C 27.7475 33.25 26.38025 31.049 26.28125 29 L 26.28125 28.75 L 28.65625 28.75 L 28.65625 28.96875 C 28.75125 30.32275 29.7935 31.21875 31.3125 31.21875 C 33.8455 31.21875 34.459 28.4485 34.625 26.0625 C 33.99 26.8405 32.84125 27.6875 31.15625 27.6875 C 28.75225 27.6875 25.9375 26.225 25.9375 22.125 C 25.9375 20.125 27.08825 16.75 31.40625 16.75 z M 31.3125 19.03125 C 28.6865 19.03125 28.5 21.7375 28.5 22.5625 C 28.5 24.8725 30.4255 25.65625 31.3125 25.65625 C 34.2315 25.65625 34.3125 22.407 34.3125 22.375 C 34.3125 22.342 34.2795 19.03125 31.3125 19.03125 z"/>
</svg>
