<?xml version="1.0" encoding="utf-8"?>
<svg xmlns="http://www.w3.org/2000/svg" viewBox="0 0 512 512" fill="currentColor">
    <path d="m467 210h-422c-24.814 0-45 20.186-45 45 0 36.216 25.809 66.513 60 73.482v108.518c0 41.353 33.647 75 75
        75h242c41.353 0 75-33.647 75-75v-108.518c34.191-6.969 60-37.266 60-73.482 0-24.814-20.186-45-45-45zm-437
        45c0-8.276 6.724-15 15-15h15v57.237c-17.422-6.213-30-22.707-30-42.237zm422 42.237v-57.237h15c8.276 0 15
        6.724 15 15 0 19.53-12.578 36.024-30 42.237z" />
    <path d="m62.377 171.27c3.488 7.604 12.488 10.787 19.893 7.354l328.011-149.99c7.529-3.457 10.825-12.378
        7.354-19.893-3.457-7.529-12.378-10.84-19.893-7.354l-110.013
        49.634c-13.854-30.134-49.545-43.33-79.585-29.414-30.104 13.839-43.262 49.427-29.416 79.592l-108.998
        50.178c-7.529 3.457-10.825 12.363-7.353 19.893z" />
    <path d="m416.858 80.142c0-8.291-6.709-15-15-15-2.813 0-27.861.425-42.451 15-14.561 14.59-14.985 39.624-14.985
        42.437 0 5.229-1.816 16.816-6.211 21.211-4.16 4.16-15.146 6.167-21.211 6.211-8.291 0-15 6.709-15 15s6.709 15
        15 15c2.813 0 27.847-.425 42.422-15s15-39.609 15-42.422c0-5.229 1.831-16.831 6.211-21.226 4.146-4.146
        15.117-6.152 21.255-6.211 8.276-.015 14.97-6.724 14.97-15z" />
    <path d="m407 180c2.813 0 27.847-.425 42.422-15s15-39.609 15-42.422c0-5.229 1.831-16.831 6.211-21.226
        4.146-4.146 15.117-6.152 21.255-6.211 8.276-.015 14.971-6.724 14.971-15 0-8.291-6.709-15-15-15-2.813
        0-27.861.425-42.451 15-14.561 14.59-14.985 39.624-14.985 42.437 0 5.229-1.816 16.816-6.211 21.211-4.16
        4.16-15.146 6.167-21.211 6.211-8.291 0-15 6.709-15 15s6.708 15 14.999 15z" />
</svg>
