<?xml version="1.0" encoding="iso-8859-1"?>
<svg
    version="1.1"
    xmlns="http://www.w3.org/2000/svg"
    xmlns:xlink="http://www.w3.org/1999/xlink"
    xml:space="preserve"
    x="0px"
    y="0px"
    viewBox="0 0 512.001 512.001"
    style="enable-background:new 0 0 512.001 512.001;">
    <g>
        <path d="M397.187,193.97h-22.706v-43.921c6.069-11.192,8.879-23.711,8.879-36.285c0-44.311-35.946-80.361-80.256-80.361
			c-12.14,0-23.92,2.724-34.656,7.867C251.711,15.935,223.112,0,191.775,0c-36.387,0-69.055,21.644-83.73,54.055
			c-29.748,3.602-53.066,29.006-53.066,59.711c0,12.024,3.9,23.586,9.969,33.417v316.544c0,26.483,21.936,48.274,48.418,48.274
			H326.87c26.483,0,47.611-21.791,47.611-48.274v-46.407h22.706c33.16,0,59.836-27.446,59.836-60.607V254.137
			C457.023,220.976,430.347,193.97,397.187,193.97z M338.065,463.726c0,6.403-4.792,11.858-11.195,11.858H113.366
			c-6.403,0-12.003-5.454-12.003-11.857V248.594h236.702V463.726z M338.067,212.178h-0.002H101.364v-50.982h59.531
			c3.661,6.069,8.169,11.206,13.457,15.894c16.879,14.968,38.673,23.032,61.017,23.032c3.337,0,6.688-0.011,10.035-0.38
			c26.847-2.964,50.354-17.91,65.199-38.546h27.466V212.178z M345.881,124.781h-20.129c0.09-1.214,0.195-1.233,0.277-1.741
			c1.604-9.927-5.143-19.39-15.07-20.995c-9.929-1.607-19.275,5.085-20.88,15.013c-3.962,24.509-23.977,43.503-48.676,46.231
			c-15.548,1.715-31.179-3.271-42.893-13.659c-7.336-6.506-11.712-16.07-12.005-26.227c-0.289-10.052-8.68-17.749-18.724-17.45
			c-10.011,0.288-17.896,7.903-17.674,18.828H94.074c-1.619-3.642-2.477-7.078-2.477-10.785c0-13.087,10.646-23.961,23.732-23.961
			c0.993,0,2.013,0.07,3.116,0.214c8.993,1.17,17.476-4.455,19.896-13.195c6.629-23.926,28.612-40.637,53.461-40.637
			c23.617,0,44.683,14.991,52.422,37.303c2.004,5.779,6.776,10.166,12.703,11.677c5.926,1.512,12.216-0.053,16.744-4.167
			c8.096-7.357,18.588-11.408,29.538-11.408c24.231,0,43.945,19.942,43.945,44.175C347.153,117.605,346.727,121.139,345.881,124.781
			z M420.607,356.714c0,13.081-10.341,24.191-23.42,24.191h-22.706V230.387h22.706c13.081,0,23.42,10.67,23.42,23.75V356.714z"/>
        <path d="M220.321,283.048c-10.056,0-18.208,8.152-18.208,18.208v134.289c0,10.056,8.152,18.208,18.208,18.208
			c10.056,0,18.208-8.152,18.208-18.208V301.255C238.529,291.2,230.377,283.048,220.321,283.048z"/>
        <path d="M151.132,268.411c-10.056,0-18.208,8.152-18.208,18.208v148.925c0,10.056,8.152,18.208,18.208,18.208
			c10.056,0,18.208-8.152,18.208-18.208V286.619C169.339,276.563,161.187,268.411,151.132,268.411z"/>
        <path d="M285.869,268.411c-10.056,0-18.208,8.152-18.208,18.208v148.925c0,10.056,8.152,18.208,18.208,18.208
			s18.208-8.152,18.208-18.208V286.619C304.077,276.563,295.925,268.411,285.869,268.411z"/>
    </g>
</svg>
