<?xml version="1.0" encoding="utf-8"?>
<svg version="1.1" xmlns="http://www.w3.org/2000/svg" xmlns:xlink="http://www.w3.org/1999/xlink" x="0px" y="0px"
	 viewBox="-50 0 512 512" style="enable-background:new 0 0 512 512;" xml:space="preserve">
<g>
    <path d="M398.611,186.741h-36.193v40.657h36.193c14.604,0,26.148,11.913,26.148,26.517V368.44
        c0,14.604-11.545,27.009-26.148,27.009h-36.193v40.657h36.193c37.023,0,66.806-30.643,66.806-67.666V253.915
        C465.417,216.892,435.633,186.741,398.611,186.741z"/>

    <path d="M296.082,139.307c-14.527,23.039-39.405,39.866-68.126,43.037c-3.342,0.369-6.687,0.424-10.019,0.424
        c-22.307,0-44.071-7.976-60.925-22.921c-6.585-5.838-11.929-13.764-15.855-20.54H57.488v348.611
        c0,13.127,11.116,24.081,24.243,24.081h238.373c13.127,0,23.341-10.954,23.341-24.081V139.307H296.082z M133.382,456.454
        c0,5.239-4.247,9.487-9.487,9.487s-9.487-4.247-9.487-9.487V290.181c0-5.239,4.247-9.487,9.487-9.487s9.487,4.247,9.487,9.487
        V456.454z M210.631,456.454c0,5.239-4.247,9.487-9.487,9.487s-9.487-4.247-9.487-9.487V306.523c0-5.239,4.247-9.487,9.487-9.487
        s9.487,4.247,9.487,9.487V456.454z M283.814,456.454c0,5.239-4.247,9.487-9.487,9.487s-9.487-4.247-9.487-9.487V290.181
        c0-5.239,4.247-9.487,9.487-9.487s9.487,4.247,9.487,9.487V456.454z"/>

    <path d="M293.683,37.416c-14.929,0-29.23,5.459-40.27,15.49c-2.358,2.143-5.634,2.926-8.724,2.139
        c-3.087-0.787-5.574-3.089-6.619-6.1C227.921,19.675,200.285,0,169.302,0c-32.598,0-61.439,21.921-70.134,53.314
        c-1.262,4.554-5.677,7.48-10.366,6.872c-1.678-0.218-3.319-0.329-4.879-0.329c-20.589,0-37.338,17.006-37.338,37.595
        c0,8.243,2.692,16.106,7.648,22.882h80.534c-0.671-4.066-1.072-7.553-1.179-11.274c-0.15-5.237,3.974-9.733,9.21-9.884
        c5.208-0.149,9.605,3.909,9.755,9.147c0.412,14.318,6.626,27.8,17.048,37.042c15.367,13.627,35.877,20.135,56.273,17.883
        c32.401-3.579,58.661-28.546,63.858-60.703c0.836-5.172,5.703-8.695,10.879-7.855c5.172,0.836,8.688,5.96,7.851,11.132
        c-0.791,4.896-1.979,9.091-3.511,14.512h44.211c2.942-8.131,4.43-15.009,4.43-22.883
        C353.589,64.416,326.716,37.416,293.683,37.416z"/>
</g>
</svg>
