<?xml version="1.0" encoding="utf-8"?>
<svg
	xmlns="http://www.w3.org/2000/svg"
	height="256"
	width="256"
	viewBox="0 0 512 512">
	<path d="M438.925 169.204c-3.253-48.149-21.943-109.273-49.729-160.47C386.273 3.354 380.642 0 374.523 0H137.371
		c-6.12 0-11.75 3.354-14.674 8.734C96.79 56.469 78.792 112.855 73.819 159.304C61.745 272.036 142.207 357.641
		239.25 366.527 v112.081h-66.783c-9.217 0-16.696 7.473-16.696 16.696c0 9.223 7.479 16.696 16.696 16.696h166.956
		c9.217 0 16.696-7.473 16.696-16.696c0-9.223-7.479-16.696-16.696-16.696H272.53V366.553 C367.133 358.044 446.157
		276.148 438.925 169.204z M294.903 289.391c-9.22 0-16.696-7.475-16.696-16.696 c0-9.22 7.475-16.696
		16.696-16.696s16.696 7.475 16.696 16.696C311.599 281.916 304.124 289.391 294.903 289.391z M216.99 256 c-9.22
		0-16.696-7.475-16.696-16.696c0-9.22 7.475-16.696 16.696-16.696s16.696 7.475 16.696 16.696 C233.686 248.525
		226.211 256 216.99 256z M269.64 158.759c-20.171-7.144-42.739-7.154-64.18 1.371 c-11.132 4.445-31.724
		16.625-58.911 3.022c-12.041-6.021-25.183-9.1-38.385-9.454c5.412-37.404 19.692-81.765 39.299-120.307
		h216.978c20.585 40.464 35.26 87.307 39.991 125.802c-23.48-8.624-49.899-7.326-72.469 3.959 C303.217 177.532
		280.771 162.66 269.64 158.759z" />
</svg>
