<?xml version="1.0" encoding="iso-8859-1"?>
<svg version="1.1" id="Layer_1" xmlns="http://www.w3.org/2000/svg" xmlns:xlink="http://www.w3.org/1999/xlink" x="0px" y="0px"
	 viewBox="0 0 512 512" style="enable-background:new 0 0 512 512;" xml:space="preserve">
<g>
	<g>
		<path d="M304.855,0h-86.828c-24.935,0-44.47,20.647-44.47,45.582v25.572h38.672V45.582c0-3.612,2.187-6.911,5.799-6.911h86.828
			c3.612,0,6.37,3.299,6.37,6.911v25.572h38.671V45.582C349.897,20.647,329.791,0,304.855,0z"/>
	</g>
</g>
<g>
	<g>
		<polygon points="462.534,159.817 424.536,443.151 493.967,394.084"/>
	</g>
</g>
<g>
	<g>
		<path d="M69.064,94.357L18.033,456.314h116.306L116.54,259.867h-6.704c-6.409,0-11.601-5.194-11.601-11.601
			c0-6.407,5.193-11.601,11.601-11.601h90.168c0.088-1.547,0.198-0.984,0.326-1.361l29.662-86.591
			c1.609-4.688,6.019-7.951,10.975-7.951h39.325c6.409,0,11.601,5.194,11.601,11.601c0,6.407-5.193,11.601-11.601,11.601h-31.039
			l-24.78,72.701h87.303c6.409,0,11.601,5.194,11.601,11.601c0,6.407-5.193,11.601-11.601,11.601h-6.704l-17.799,196.447H399.4
			c0.014-0.238,0.025-0.476,0.057-0.718l48.278-359.987c0.057-0.427,0.141-0.845,0.241-1.253H69.064z"/>
	</g>
</g>
<g>
	<g>
		<polygon points="139.836,259.867 162.627,512 258.979,512 281.77,259.867"/>
	</g>
</g>
</svg>
