<svg version="1" xmlns="http://www.w3.org/2000/svg" width="1102.667" height="1102.667" viewBox="0 0 827.000000 827.000000"><path d="M387.9.4c-.2.2-4.4.7-9.4 1-17.6 1.3-32.7 3.5-53 7.8-10.2 2.1-36.4 9.1-40 10.7-1.1.5-6.8 2.6-12.7 4.6-6 2-10.8 3.9-10.8 4.2 0 .2 1.5.2 3.3-.1 2.9-.4 9.9-1.1 23.2-2.1 34.2-2.8 87.6-2.3 121 1 2.8.2 7.5.7 10.5 1 5.1.5 16.8 2 25 3.1 3.3.5 11.1 1.7 17.5 2.9 1.7.3 4.4.7 6 1 8.1 1.4 31.5 6.8 41 9.5 12.8 3.6 18.5 5.3 21.3 6.6 1.8.7 3.8 1.4 4.4 1.4 2.2 0 24.6 9.4 36.1 15.1 34.4 17.2 55.1 37.9 59.5 59.4 1.3 6.3.5 17.9-1.7 23.9-10.3 28.9-49.3 55.4-107.6 73.1-20.6 6.2-54.9 13.9-71.9 16-2.7.3-5.2.8-5.5.9-.3.2-3.3.7-6.6 1-3.3.4-7.6.8-9.5 1.1-6.2.8-16.3 1.9-29 2.9-29 2.5-80.1 2.5-110 .1-2.5-.2-8.1-.6-12.5-.9-4.4-.4-9.1-.8-10.5-1-2.7-.5-8.5-1.2-16.5-2.1-4.4-.5-7.8-1-21-3.2-1.6-.2-9.7-1.8-18-3.5-8.2-1.6-15.9-3.1-17-3.4-1.1-.2-8.5-2.2-16.5-4.4-8-2.3-14.9-4.2-15.5-4.3-4.5-1.2-15.3-5.2-16.4-6.1-.8-.6-1.6-1-1.8-.8-.9.8-18.5-6.7-32.7-14-12.2-6.2-25.4-15.1-33.3-22.4-1.4-1.3-2.9-2.4-3.4-2.4-2.2 0-22.9 34.9-32.5 54.8-6.8 14.1-16.9 38.5-19.9 48.2-.9 3-2.3 7.3-3.1 9.5-2 5.7-7.4 26.5-8.9 34-.5 2.2-.9 4.2-1 4.5-.1.6-1.3 6.6-2 10-.3 1.3-.7 4-1 6-.3 2-.7 4.6-1 5.9-.2 1.3-.7 4.9-1 8-.4 3.1-.8 6.7-1.1 8.1-2.6 16.3-2.6 75.7.1 94 .2 1.4.6 4.7 1 7.5 1.1 8.2 1.3 9.6 2.9 18.5 4.3 24.8 13.1 55.4 22.6 79.6 10.9 27.3 28 59.2 45.1 83.4 4 5.8 7.8 11 8.4 11.6.5.7 1.9 2.4 3 4 5.6 7.8 22.6 27.3 33.1 37.9 15.7 15.8 21.4 20.9 36.9 33.2 7.2 5.7 13.5 10.8 14.2 11.3 2.2 1.8 31.2 21 31.7 21 .2 0 4.6 2.4 9.8 5.4 5.1 2.9 14.7 7.9 21.3 11 6.6 3.2 12.7 6.1 13.6 6.6 8.6 4.6 44.4 17.1 61.4 21.5 10.8 2.8 30.5 7 37 8 2.2.3 5.2.8 6.6 1 3.9.7 9.7 1.4 16.4 2.1 3.3.3 7.1.7 8.5 1 3.5.6 46 1.8 46 1.2 0-.2-.4-2.9-1-5.9-1.8-10.1-2-11.4-2.5-16.4-.4-2.8-.8-6.1-1-7.5-.3-1.4-.7-5.5-1-9-.3-3.6-.7-8.1-1-10-2.5-22.4-2.5-76.7 0-102.5 1.1-11.1 1.6-15.2 2-18.5.3-1.9.7-5.5 1-8 .8-5.8 1.4-9.9 2-13 .3-1.4.7-4 1-5.8.2-1.8.6-4.5.9-6 .3-1.5.8-4.3 1.1-6.2 1.1-6.7 8.3-36.5 11-45.5 1.4-5 2.8-9.7 3-10.5.8-3.4 9-26.3 13.2-36.8 26.2-66.5 67.4-122.3 115.8-156.8 21.4-15.3 44.7-26.3 69-32.5 4.4-1.2 9.1-2.3 10.5-2.5 1.4-.2 3.4-.6 4.5-.9 1.9-.4 5.6-.9 15.5-2 17-1.9 43.8.4 63.5 5.6 15.7 4.1 42.4 15.5 51.7 22 1.4 1.1 2.9 1.9 3.2 1.9 2.2 0 27.8 19.1 36.3 27.1 2.3 2.1 4.5 3.9 4.8 3.9.5 0 .2-5.8-.9-18.5-1.9-20.4-6.9-47.1-12.6-68-3.4-12.1-3.5-12.3-4.2-14.5-.3-.8-2.5-7.1-4.8-14-15.2-44.7-40-88.2-72.9-128-8.6-10.4-35.4-38.1-44.1-45.5-21-17.8-47.7-37.1-65-46.7-2.5-1.4-6.3-3.5-8.5-4.8-13.9-7.9-41.4-20.5-56-25.7-9.2-3.3-27.5-9.2-30-9.7-1.1-.3-5.1-1.3-9-2.4-15.9-4.4-43.3-9.4-58-10.7-3.8-.4-8.1-.9-9.5-1.2-3-.6-61.4-1.5-62.1-.9z"/></svg>